<svg width="90" height="92" xmlns="http://www.w3.org/2000/svg" xmlns:xlink="http://www.w3.org/1999/xlink" xml:space="preserve" overflow="hidden"><defs><clipPath id="clip0"><rect x="628" y="396" width="90" height="92"/></clipPath></defs><g clip-path="url(#clip0)" transform="translate(-628 -396)"><path d="M49.1429 39.6313C49.4562 39.6313 49.788 39.5392 50.0645 39.3548 54.5253 36.4055 58.2304 32.4055 60.7742 27.7972 63.4286 23.0046 64.8295 17.5115 64.8295 11.9447 64.8295 11.0783 64.1659 10.3594 63.2811 10.2857 61.5668 10.1567 59.9263 9.80645 58.1751 9.43779L57.659 9.32719C55.023 8.70046 52.4793 7.5576 49.917 5.84332 49.3641 5.47465 48.6452 5.47465 48.0922 5.82488 45.8065 7.31797 43.0968 8.51613 40.2765 9.32719 38.4516 9.75115 36.7189 10.1382 34.8571 10.2857 33.9908 10.341 33.3088 11.0783 33.3088 11.9447L33.3088 12.0922C33.3088 17.6037 34.7281 23.0599 37.4378 27.8894 40.0369 32.5346 43.7788 36.4977 48.2212 39.3733 48.5161 39.5576 48.8295 39.6313 49.1429 39.6313ZM36.6636 13.4378C38.1936 13.235 39.6498 12.8848 41.0691 12.5714 41.106 12.5714 41.1244 12.553 41.1429 12.553 43.9263 11.7604 46.5991 10.6175 48.9585 9.19816 51.5576 10.8203 54.1567 11.9263 56.8848 12.5714 56.9032 12.5714 56.9032 12.5714 56.9217 12.5714L57.4562 12.682C58.8018 12.977 60.0922 13.2535 61.4378 13.4378 60.9954 22.4332 56.4608 30.7097 49.106 35.9631 41.659 30.765 37.0876 22.4885 36.6636 13.4378Z" fill="#F1E8F8" transform="matrix(1.00237 0 0 1 628.037 396)"/><path d="M55.7419 15.7788C55.0968 15.1336 54.0461 15.1336 53.4009 15.7788L46.4147 22.765 44.7189 21.0691C44.0737 20.424 43.023 20.424 42.3779 21.0691 41.7327 21.7143 41.7327 22.765 42.3779 23.4101L45.235 26.2673C45.5668 26.5991 45.9908 26.7465 46.4147 26.7465 46.8387 26.7465 47.2627 26.5806 47.5945 26.2673L55.7419 18.1198C56.3871 17.4931 56.3871 16.4424 55.7419 15.7788Z" fill="#F1E8F8" transform="matrix(1.00237 0 0 1 628.037 396)"/><path d="M87.9447 13.8065C86.6544 12.2765 84.7926 11.3364 82.7281 11.1705L79.0968 10.8756 79.0968 7.52074C79.0968 3.29954 75.7972 0 71.576 0L26.5438 0C22.3226 0 19.023 3.29954 19.023 7.52074L19.023 35.0046 13.5115 40.5161C12.7189 41.3088 12.2765 42.3594 12.2765 43.4839 12.2765 44.5899 12.7189 45.6406 13.5115 46.4516 14.3041 47.2442 15.3917 47.6866 16.5161 47.6866 16.5714 47.6866 16.6267 47.6866 16.682 47.6866 17.1429 47.6682 17.5853 47.576 17.9908 47.4101L19.4101 48.8295 4.68203 62.5069C4.66359 62.5253 4.64516 62.5438 4.64516 62.5438 3.64977 63.5392 3.07834 64.8479 3.02304 66.2304 2.96774 67.6682 3.5023 69.0323 4.51613 70.0461 5.51152 71.0415 6.85714 71.5945 8.23963 71.5945 8.3318 71.5945 8.42396 71.5945 8.4977 71.5945 9.91705 71.5207 11.1889 70.894 12.0737 69.8433L19.0415 62.341 19.0415 73.6037C19.0415 76.7558 20.9032 79.4101 23.5945 80.5346 23.7051 84.3687 26.5438 87.5023 30.4147 87.8341L75.318 91.9816C75.5576 92 75.7972 92.0184 76.0184 92.0184 79.9631 92.0184 83.1889 89.1429 83.5392 85.1982L89.6959 19.4286C89.6959 19.4286 89.6959 19.4286 89.6959 19.4101 89.8618 17.3272 89.2535 15.3364 87.9447 13.8065ZM17.0691 44.0922C17.0323 44.129 17.0138 44.1475 16.977 44.1843 16.8848 44.2765 16.7189 44.3502 16.5346 44.3502 16.2765 44.3687 16 44.2581 15.8341 44.0922 15.8341 44.0922 15.8341 44.0922 15.8341 44.0922 15.6129 43.871 15.576 43.6313 15.576 43.4839 15.576 43.318 15.6129 43.0968 15.8341 42.8756L23.8341 34.8756C24.0553 34.6544 24.2949 34.6175 24.4424 34.6175 24.6083 34.6175 24.8295 34.6728 25.0507 34.8756 25.2719 35.0968 25.3088 35.3364 25.3088 35.4839 25.3088 35.6313 25.2719 35.871 25.0507 36.0922L17.0691 44.0922ZM29.1982 53.9171 27.0599 51.7788 22.7465 47.4654 20.6083 45.3456 26.341 39.6129 34.9124 48.1843 29.1982 53.9171ZM38.4332 49.4562C38.7834 49.106 39.318 49.106 39.6682 49.4562 39.8894 49.6774 39.9263 49.917 39.9263 50.0645 39.9263 50.212 39.8894 50.4516 39.6682 50.6728L31.6682 58.6728C31.6313 58.7097 31.6129 58.7281 31.576 58.765 31.4839 58.8571 31.318 58.9309 31.1336 58.9309 30.8756 58.9493 30.5991 58.8387 30.4332 58.6728 30.083 58.3226 30.083 57.788 30.4332 57.4378L38.4332 49.4562ZM9.60369 67.5945C9.58525 67.6129 9.54839 67.6498 9.52995 67.6682 9.14286 68.1475 8.6083 68.2396 8.31336 68.2581 7.76037 68.2949 7.22581 68.0737 6.83871 67.6866 6.37788 67.2258 6.30415 66.7097 6.32258 66.341 6.34101 65.8065 6.56221 65.2903 6.96774 64.9032L21.7696 51.1705 21.788 51.1521 23.3917 52.7558 23.3733 52.7742 9.60369 67.5945ZM22.341 58.7465 25.7143 55.1152 27.1336 56.5346C26.5438 58.0276 26.8571 59.7788 28.0922 61.0138 28.0922 61.0138 28.0922 61.0138 28.0922 61.0138 28.8848 61.8065 29.9724 62.2489 31.0968 62.2489 31.1521 62.2489 31.2074 62.2489 31.2627 62.2489 32.3502 62.212 33.3641 61.7512 34.0461 60.977L42.0092 53.0138C42.8018 52.2212 43.2442 51.1705 43.2442 50.0461 43.2442 48.9217 42.8018 47.8894 42.0092 47.0783 40.7926 45.8618 39.0783 45.5484 37.5853 46.1014L28.3871 36.9401C28.553 36.4793 28.6636 35.9816 28.6636 35.4839 28.6636 34.3779 28.2212 33.3272 27.4286 32.5161 26.6359 31.7235 25.5853 31.2811 24.4608 31.2811 23.7051 31.2811 22.9677 31.4839 22.3226 31.871L22.3226 7.52074C22.3226 5.16129 24.1659 3.31797 26.5253 3.31797L71.576 3.31797C73.9355 3.31797 75.7788 5.16129 75.7788 7.52074L75.7788 11.7051 75.7788 73.5853C75.7788 74.9493 75.1521 76.1475 74.1751 76.9032 73.4378 77.53 72.4793 77.9171 71.4286 77.9171L55.576 77.9171 26.3963 77.9171C26.3041 77.9171 26.1567 77.8802 26.0092 77.8618 25.9908 77.8618 25.9724 77.8618 25.9539 77.8433L25.9539 77.7327C23.8894 77.4562 22.341 75.7235 22.341 73.5668L22.341 58.7465ZM54.3779 81.106C54.2304 81.1429 54.083 81.1613 53.9355 81.1613L27.6129 81.1613C27.4654 81.1613 27.2995 81.1429 27.1705 81.106L54.3779 81.106ZM86.3779 19.0968 80.2212 84.8848C80.0184 87.2074 77.9724 88.8664 75.5945 88.6636L30.6912 84.5161C28.8295 84.3502 27.3917 83.0046 27.0046 81.2535L71.447 81.2535C73.1244 81.2535 74.6912 80.7005 75.9447 79.7604 77.7696 78.3963 78.9677 76.2028 78.9677 73.7327L78.9677 14.1935 79.1152 14.212 82.47 14.4885C83.6498 14.5806 84.7005 15.1152 85.4194 15.9631 86.1383 16.7926 86.47 17.9171 86.3779 19.0968Z" fill="#F1E8F8" transform="matrix(1.00237 0 0 1 628.037 396)"/><path d="M29.2719 77.788 29.2719 74.8756 52.2581 74.8756 52.2581 77.788 55.576 77.788 55.576 73.2166C55.576 72.2949 54.8387 71.5576 53.9171 71.5576L52.9217 71.5576 52.9217 70.2857C52.9217 67.5207 50.5991 65.1982 47.8341 65.1982L33.8249 65.1982C31.0599 65.1982 28.7373 67.5207 28.7373 70.2857L28.7373 71.5576 27.6129 71.5576C26.6912 71.5576 25.9539 72.2949 25.9539 73.2166L25.9539 77.7512C26.1383 77.7696 26.341 77.788 26.5438 77.788L29.2719 77.788ZM32.0553 70.3041C32.0553 69.3641 32.8848 68.5346 33.8249 68.5346L47.8341 68.5346C48.7742 68.5346 49.6037 69.3641 49.6037 70.3041L49.6037 71.5023 32.0369 71.5023 32.0369 70.3041Z" fill="#F1E8F8" transform="matrix(1.00237 0 0 1 628.037 396)"/><path d="M9.56682 0.682028C9.54839 0.682028 9.52995 0.663594 9.51152 0.663594 8.29493 0.239631 7.07834 0.0368664 5.88018 0.0368664 4.73733 0.0552995 3.63134 0.258065 2.56221 0.663594 0.995392 1.14286 0 2.52535 0 4.23963L0 8.20277 0 38.9862C0 38.9862 0 39.0046 0 39.0046 0 39.0599 0 39.1152 0 39.1521 0 39.2074 0.0184332 39.2627 0.0184332 39.318 0.0184332 39.3364 0.0368664 39.3733 0.0368664 39.3917 0.0368664 39.4286 0.0552995 39.447 0.0552995 39.4839 0.0737327 39.5392 0.0921659 39.5945 0.110599 39.6313 0.129032 39.6866 0.147465 39.7419 0.184332 39.7788 0.184332 39.7788 0.184332 39.7788 0.184332 39.7788L4.3318 47.3548C4.62673 47.8894 5.17972 48.2212 5.76959 48.2212 5.76959 48.2212 5.76959 48.2212 5.78802 48.2212 6.37788 48.2212 6.93088 47.9078 7.22581 47.3733L11.2442 40.2765C11.6313 39.9816 11.871 39.5023 11.871 38.9677L11.871 4.23963C11.8894 2.72811 10.9124 1.23502 9.56682 0.682028ZM8.57143 37.3272 3.31797 37.3272 3.31797 9.17972 8.57143 9.17972 8.57143 37.3272ZM3.17051 4.23963C3.17051 4.0553 3.31797 3.8341 3.41014 3.7788 4.23963 3.48387 5.06912 3.35484 5.88018 3.35484 6.63594 3.37327 7.35484 3.5023 8.07373 3.7788 8.1106 3.79724 8.1659 3.81567 8.2212 3.8341 8.31336 3.85253 8.4424 3.90783 8.4424 4.23963L8.4424 5.86175 3.31797 5.86175 3.17051 5.86175 3.17051 4.23963ZM5.82488 43.1521 4.46083 40.6452 7.24424 40.6452 5.82488 43.1521Z" fill="#F1E8F8" transform="matrix(1.00237 0 0 1 628.037 396)"/><path d="M48.4793 45.9908C48.4793 46.9124 49.2166 47.6498 50.1383 47.6498L69.5853 47.6498C70.5069 47.6498 71.2442 46.9124 71.2442 45.9908 71.2442 45.0691 70.5069 44.3318 69.5853 44.3318L50.1383 44.3318C49.2166 44.3318 48.4793 45.0691 48.4793 45.9908Z" fill="#F1E8F8" transform="matrix(1.00237 0 0 1 628.037 396)"/><path d="M69.5853 52.6267 47.8525 52.6267C46.9309 52.6267 46.1936 53.3641 46.1936 54.2857 46.1936 55.2074 46.9309 55.9447 47.8525 55.9447L69.5853 55.9447C70.5069 55.9447 71.2442 55.2074 71.2442 54.2857 71.2442 53.3641 70.5069 52.6267 69.5853 52.6267Z" fill="#F1E8F8" transform="matrix(1.00237 0 0 1 628.037 396)"/><path d="M69.5853 60.7742 56.1475 60.7742C55.2258 60.7742 54.4885 61.5115 54.4885 62.4332 54.4885 63.3548 55.2258 64.0922 56.1475 64.0922L69.5853 64.0922C70.5069 64.0922 71.2442 63.3548 71.2442 62.4332 71.2442 61.5115 70.5069 60.7742 69.5853 60.7742Z" fill="#F1E8F8" transform="matrix(1.00237 0 0 1 628.037 396)"/><path d="M69.5853 69.0691 62.1567 69.0691C61.235 69.0691 60.4977 69.8065 60.4977 70.7281 60.4977 71.6498 61.235 72.3871 62.1567 72.3871L69.5853 72.3871C70.5069 72.3871 71.2442 71.6498 71.2442 70.7281 71.2442 69.8065 70.5069 69.0691 69.5853 69.0691Z" fill="#F1E8F8" transform="matrix(1.00237 0 0 1 628.037 396)"/></g></svg>