<svg width="92" height="92" xmlns="http://www.w3.org/2000/svg" xmlns:xlink="http://www.w3.org/1999/xlink" xml:space="preserve" overflow="hidden"><defs><clipPath id="clip0"><rect x="148" y="533" width="92" height="92"/></clipPath></defs><g clip-path="url(#clip0)" transform="translate(-148 -533)"><path d="M235.548 565.645 208.839 565.645C206.39 565.645 204.387 567.648 204.387 570.097L204.387 587.903C204.387 590.352 206.39 592.355 208.839 592.355L216.258 592.355 216.258 595.323 213.29 595.323 213.29 598.29 220.71 598.29 220.71 605.71C220.71 606.526 220.042 607.194 219.226 607.194L210.248 607.194C209.636 600.498 204.925 594.803 198.452 592.985L198.452 590.871C198.452 588.423 196.448 586.419 194 586.419 191.552 586.419 189.548 588.423 189.548 590.871L189.548 592.985C183.075 594.822 178.364 600.516 177.752 607.194L167.29 607.194C166.474 607.194 165.806 606.526 165.806 605.71L165.806 604.152C174.116 603.391 180.645 596.398 180.645 587.903 180.645 578.907 173.319 571.581 164.323 571.581 155.327 571.581 148 578.907 148 587.903 148 596.398 154.529 603.391 162.839 604.152L162.839 605.71C162.839 608.158 164.842 610.161 167.29 610.161L177.752 610.161C178.512 618.471 185.505 625 194 625 202.495 625 209.488 618.471 210.248 610.161L219.226 610.161C221.674 610.161 223.677 608.158 223.677 605.71L223.677 598.29 231.097 598.29 231.097 595.323 228.129 595.323 228.129 592.355 235.548 592.355C237.997 592.355 240 590.352 240 587.903L240 570.097C240 567.648 237.997 565.645 235.548 565.645ZM150.968 587.903C150.968 580.539 156.959 574.548 164.323 574.548 171.686 574.548 177.677 580.539 177.677 587.903 177.677 595.267 171.686 601.258 164.323 601.258 156.959 601.258 150.968 595.267 150.968 587.903ZM192.516 590.871C192.516 590.055 193.184 589.387 194 589.387 194.816 589.387 195.484 590.055 195.484 590.871L195.484 605.71C195.484 606.526 194.816 607.194 194 607.194 193.184 607.194 192.516 606.526 192.516 605.71L192.516 590.871ZM194 610.161C196.448 610.161 198.452 608.158 198.452 605.71L198.452 602.76C200.288 604.133 201.419 606.322 201.419 608.677 201.419 612.777 198.099 616.097 194 616.097 189.901 616.097 186.581 612.777 186.581 608.677 186.581 606.303 187.712 604.133 189.548 602.76L189.548 605.71C189.548 608.158 191.552 610.161 194 610.161ZM194 622.032C186.636 622.032 180.645 616.041 180.645 608.677 180.645 602.983 184.299 597.956 189.548 596.102L189.548 599.329C185.969 601.035 183.613 604.652 183.613 608.677 183.613 614.409 188.269 619.065 194 619.065 199.731 619.065 204.387 614.409 204.387 608.677 204.387 604.652 202.031 601.035 198.452 599.329L198.452 596.102C203.701 597.956 207.355 602.983 207.355 608.677 207.355 616.041 201.364 622.032 194 622.032ZM225.161 595.323 219.226 595.323 219.226 592.355 225.161 592.355 225.161 595.323ZM237.032 587.903C237.032 588.719 236.365 589.387 235.548 589.387L208.839 589.387C208.023 589.387 207.355 588.719 207.355 587.903L207.355 586.419 237.032 586.419 237.032 587.903ZM237.032 583.452 207.355 583.452 207.355 570.097C207.355 569.281 208.023 568.613 208.839 568.613L235.548 568.613C236.365 568.613 237.032 569.281 237.032 570.097L237.032 583.452Z" fill="#F1E8F8"/><path d="M152.452 568.613 167.29 568.613C169.757 568.613 171.742 566.628 171.742 564.161L171.742 552.29 186.581 552.29C187.397 552.29 188.065 552.958 188.065 553.774L188.065 571.581C188.065 572.397 188.732 573.065 189.548 573.065L189.548 573.065C190.365 573.065 191.032 572.397 191.032 571.581L191.032 553.774C191.032 551.307 189.048 549.323 186.581 549.323L171.742 549.323 171.742 537.452C171.742 534.985 169.757 533 167.29 533L152.452 533C149.985 533 148 534.985 148 537.452L148 564.161C148 566.628 149.985 568.613 152.452 568.613ZM150.968 537.452C150.968 536.635 151.635 535.968 152.452 535.968L167.29 535.968C168.106 535.968 168.774 536.635 168.774 537.452L168.774 538.935 150.968 538.935 150.968 537.452ZM150.968 541.903 168.774 541.903 168.774 559.71 150.968 559.71 150.968 541.903ZM150.968 562.677 168.774 562.677 168.774 564.161C168.774 564.977 168.106 565.645 167.29 565.645L152.452 565.645C151.635 565.645 150.968 564.977 150.968 564.161L150.968 562.677Z" fill="#F1E8F8"/><path d="M164.323 589.387C161.874 589.387 159.871 591.39 159.871 593.839 159.871 596.287 161.874 598.29 164.323 598.29 166.771 598.29 168.774 596.287 168.774 593.839 168.774 591.39 166.771 589.387 164.323 589.387ZM164.323 595.323C163.506 595.323 162.839 594.655 162.839 593.839 162.839 593.023 163.506 592.355 164.323 592.355 165.139 592.355 165.806 593.023 165.806 593.839 165.806 594.655 165.139 595.323 164.323 595.323Z" fill="#F1E8F8"/><path d="M156.977 586.494 159.073 588.59C161.967 585.696 166.678 585.696 169.572 588.59L171.668 586.494C167.624 582.45 161.021 582.45 156.977 586.494Z" fill="#F1E8F8"/><path d="M173.764 584.398 175.86 582.302C169.498 575.94 159.148 575.94 152.767 582.302L154.863 584.398C160.094 579.185 168.552 579.185 173.764 584.398Z" fill="#F1E8F8"/><path d="M189.548 584.935 189.548 584.935C190.365 584.935 191.032 584.268 191.032 583.452L191.032 583.452C191.032 582.635 190.365 581.968 189.548 581.968L189.548 581.968C188.732 581.968 188.065 582.635 188.065 583.452L188.065 583.452C188.065 584.268 188.732 584.935 189.548 584.935Z" fill="#F1E8F8"/><path d="M189.548 576.032 189.548 576.032C188.732 576.032 188.065 576.7 188.065 577.516L188.065 577.516C188.065 578.332 188.732 579 189.548 579L189.548 579C190.365 579 191.032 578.332 191.032 577.516L191.032 577.516C191.032 576.7 190.365 576.032 189.548 576.032Z" fill="#F1E8F8"/><path d="M198.452 581.968 198.452 581.968C197.635 581.968 196.968 582.635 196.968 583.452L196.968 583.452C196.968 584.268 197.635 584.935 198.452 584.935L198.452 584.935C199.268 584.935 199.935 584.268 199.935 583.452L199.935 583.452C199.935 582.635 199.268 581.968 198.452 581.968Z" fill="#F1E8F8"/><path d="M198.452 576.032 198.452 576.032C197.635 576.032 196.968 576.7 196.968 577.516L196.968 577.516C196.968 578.332 197.635 579 198.452 579L198.452 579C199.268 579 199.935 578.332 199.935 577.516L199.935 577.516C199.935 576.7 199.268 576.032 198.452 576.032Z" fill="#F1E8F8"/><path d="M199.935 550.806C199.935 549.99 200.603 549.323 201.419 549.323L210.397 549.323C211.157 556.927 217.686 562.881 225.551 562.677 233.248 562.473 239.573 556.334 239.981 548.655 240.427 540.104 233.601 533 225.161 533 217.482 533 211.139 538.861 210.397 546.355L201.419 546.355C198.952 546.355 196.968 548.34 196.968 550.806L196.968 571.581C196.968 572.397 197.635 573.065 198.452 573.065L198.452 573.065C199.268 573.065 199.935 572.397 199.935 571.581L199.935 550.806ZM215.906 555.258 219.949 555.258C220.227 556.631 220.598 557.892 221.062 558.968 219.022 558.207 217.241 556.927 215.906 555.258ZM225.161 559.71C224.698 559.71 223.696 558.189 222.991 555.258L227.331 555.258C226.627 558.189 225.625 559.71 225.161 559.71ZM236.16 552.29 230.856 552.29C230.967 551.307 231.041 550.324 231.078 549.323L236.94 549.323C236.791 550.361 236.531 551.363 236.16 552.29ZM236.16 543.387C236.531 544.315 236.81 545.316 236.94 546.355L231.078 546.355C231.041 545.353 230.967 544.37 230.856 543.387L236.16 543.387ZM234.417 540.419 230.373 540.419C230.095 539.047 229.724 537.785 229.26 536.71 231.301 537.47 233.081 538.75 234.417 540.419ZM230.373 555.258 234.417 555.258C233.081 556.927 231.301 558.207 229.26 558.968 229.724 557.892 230.095 556.631 230.373 555.258ZM227.869 552.29 222.472 552.29C222.36 551.381 222.268 550.398 222.231 549.323L228.11 549.323C228.055 550.398 227.981 551.381 227.869 552.29ZM225.161 535.968C225.625 535.968 226.627 537.489 227.331 540.419L222.991 540.419C223.696 537.489 224.698 535.968 225.161 535.968ZM222.453 543.387 227.851 543.387C227.962 544.296 228.055 545.279 228.092 546.355L222.212 546.355C222.268 545.279 222.342 544.296 222.453 543.387ZM221.062 536.71C220.598 537.785 220.227 539.047 219.949 540.419L215.906 540.419C217.241 538.75 219.022 537.47 221.062 536.71ZM214.162 543.387 219.467 543.387C219.356 544.37 219.281 545.353 219.244 546.355L213.383 546.355C213.531 545.316 213.791 544.315 214.162 543.387ZM219.263 549.323C219.3 550.324 219.374 551.307 219.485 552.29L214.181 552.29C213.81 551.363 213.531 550.361 213.402 549.323L219.263 549.323Z" fill="#F1E8F8"/></g></svg>