<svg width="93" height="92" xmlns="http://www.w3.org/2000/svg" xmlns:xlink="http://www.w3.org/1999/xlink" xml:space="preserve" overflow="hidden"><defs><clipPath id="clip0"><rect x="627" y="533" width="93" height="92"/></clipPath></defs><g clip-path="url(#clip0)" transform="translate(-627 -533)"><path d="M61.3094 32.0742C61.3094 31.2836 61.9562 30.6367 62.7469 30.6367L90.5625 30.6367C91.3531 30.6367 92 31.2836 92 32.0742 92 32.8648 91.3531 33.5117 90.5625 33.5117L62.7469 33.5117C61.9562 33.5117 61.3094 32.8648 61.3094 32.0742ZM0 20.2328C0 9.07422 9.07422 0 20.2328 0 31.3914 0 40.4656 9.07422 40.4656 20.2328 40.4656 31.3914 31.3914 40.4656 20.2328 40.4656 9.07422 40.4656 0 31.3914 0 20.2328ZM37.5367 21.6883 22.7484 21.6883 30.2414 34.4281C34.3203 31.5352 37.1055 26.9352 37.5367 21.6883ZM21.6703 2.92891 21.6703 18.7953 37.5367 18.7953C36.8359 10.368 30.0977 3.62969 21.6703 2.92891ZM2.875 20.2328C2.875 29.8102 10.6555 37.5906 20.2328 37.5906 22.9281 37.5906 25.4797 36.9797 27.7617 35.8656L18.993 20.9516C18.8672 20.7359 18.7953 20.4844 18.7953 20.2148L18.7953 2.92891C9.90078 3.66562 2.875 11.1406 2.875 20.2328ZM62.7469 3.80938 90.5625 3.80938C91.3531 3.80938 92 3.1625 92 2.37188 92 1.58125 91.3531 0.934375 90.5625 0.934375L62.7469 0.934375C61.9562 0.934375 61.3094 1.58125 61.3094 2.37188 61.3094 3.1625 61.9562 3.80938 62.7469 3.80938ZM62.7469 9.82891 76.6547 9.82891C77.4453 9.82891 78.0922 9.18203 78.0922 8.39141 78.0922 7.60078 77.4453 6.95391 76.6547 6.95391L62.7469 6.95391C61.9562 6.95391 61.3094 7.60078 61.3094 8.39141 61.3094 9.18203 61.9562 9.82891 62.7469 9.82891ZM46.9883 9.34375 46.9883 1.4375C46.9883 0.646875 47.6352 0 48.4258 0L56.332 0C57.1227 0 57.7695 0.646875 57.7695 1.4375L57.7695 9.34375C57.7695 10.1344 57.1227 10.7812 56.332 10.7812L48.4258 10.7812C47.6352 10.7812 46.9883 10.1344 46.9883 9.34375ZM49.8633 7.90625 54.8945 7.90625 54.8945 2.875 49.8633 2.875 49.8633 7.90625ZM62.7469 18.6695 90.5625 18.6695C91.3531 18.6695 92 18.0227 92 17.232 92 16.4414 91.3531 15.7945 90.5625 15.7945L62.7469 15.7945C61.9562 15.7945 61.3094 16.4414 61.3094 17.232 61.3094 18.0227 61.9562 18.6695 62.7469 18.6695ZM62.7469 24.6891 76.6547 24.6891C77.4453 24.6891 78.0922 24.0422 78.0922 23.2516 78.0922 22.4609 77.4453 21.8141 76.6547 21.8141L62.7469 21.8141C61.9562 21.8141 61.3094 22.4609 61.3094 23.2516 61.3094 24.0422 61.9562 24.6891 62.7469 24.6891ZM46.9883 24.1859 46.9883 16.2797C46.9883 15.4891 47.6352 14.8422 48.4258 14.8422L56.332 14.8422C57.1227 14.8422 57.7695 15.4891 57.7695 16.2797L57.7695 24.1859C57.7695 24.9766 57.1227 25.6234 56.332 25.6234L48.4258 25.6234C47.6352 25.6234 46.9883 24.9766 46.9883 24.1859ZM49.8633 22.7484 54.8945 22.7484 54.8945 17.7172 49.8633 17.7172 49.8633 22.7484ZM12.4344 57.7516 12.4344 90.5625C12.4344 91.3531 11.7875 92 10.9969 92L1.4375 92C0.646875 92 0 91.3531 0 90.5625L0 57.7516C0 56.9609 0.646875 56.3141 1.4375 56.3141L10.9969 56.3141C11.7875 56.3141 12.4344 56.943 12.4344 57.7516ZM9.55937 59.1891 2.875 59.1891 2.875 89.125 9.55937 89.125 9.55937 59.1891ZM91.1195 83.6805 87.4539 87.4539C86.843 88.0828 86.0344 88.4062 85.2078 88.4062 84.4172 88.4062 83.6445 88.1188 83.0336 87.5258L72.8633 77.6609C72.2703 77.0859 71.9289 76.2953 71.9109 75.4688 71.9109 75.0375 71.9828 74.6063 72.1445 74.2109L68.2273 70.4195C66.8438 71.4437 65.3344 72.3063 63.7172 72.9531L63.7172 90.5625C63.7172 91.3531 63.0703 92 62.2797 92L52.7203 92C51.9297 92 51.2828 91.3531 51.2828 90.5625L51.2828 73.7438C49.5398 73.2945 47.8867 72.6117 46.3594 71.7313L46.3594 90.5625C46.3594 91.3531 45.7125 92 44.9219 92L35.3984 92C34.6078 92 33.9609 91.3531 33.9609 90.5625L33.9609 62.6031C33.9609 61.8125 34.6078 61.1656 35.3984 61.1656L37.5547 61.1656C36.8 59.0633 36.3867 56.7992 36.3867 54.4453 36.3867 46.8266 40.6812 40.1781 46.9883 36.8359L46.9883 31.1398C46.9883 30.3492 47.6352 29.7023 48.4258 29.7023L56.332 29.7023C57.1227 29.7023 57.7695 30.3492 57.7695 31.1398L57.7695 34.5539C60.4828 34.7516 63.0344 35.4883 65.3523 36.6562L76.6727 36.6562C77.4633 36.6562 78.1102 37.3031 78.1102 38.0938 78.1102 38.8844 77.4633 39.5312 76.6727 39.5312L69.575 39.5312C73.6898 43.1969 76.2953 48.5156 76.2953 54.4453 76.2953 58.2547 75.2172 61.8125 73.3664 64.8492L77.4453 68.8023C77.8227 68.6227 78.2539 68.5328 78.6852 68.5148 79.5297 68.4969 80.3023 68.8203 80.9133 69.3953L91.0836 79.2602C92.2875 80.4641 92.3234 82.4406 91.1195 83.6805L91.1195 83.6805ZM71.6594 67.2031C71.282 67.6703 70.8688 68.1016 70.4555 68.5328L74.0312 72.0008 75.2891 70.707 71.6594 67.2031ZM49.8633 35.5781C51.4625 35.0391 53.1336 34.6797 54.8945 34.5539L54.8945 32.5773 49.8633 32.5773 49.8633 35.5781ZM39.2617 54.4453C39.2617 63.8609 46.9164 71.5156 56.332 71.5156 65.7477 71.5156 73.4023 63.8609 73.4023 54.4453 73.4023 45.0297 65.7477 37.375 56.332 37.375 46.9164 37.375 39.2617 45.0297 39.2617 54.4453ZM43.5203 69.7188C41.6336 68.1375 40.0344 66.1969 38.8484 64.0227L36.8359 64.0227 36.8359 89.125 43.5203 89.125 43.5203 69.7188ZM60.8781 73.8695C59.4227 74.2109 57.8953 74.3906 56.332 74.3906 55.6133 74.3906 54.8945 74.3547 54.1938 74.2828L54.1938 89.125 60.8781 89.125 60.8781 73.8695ZM89.0531 81.3266 78.8828 71.4617C78.8289 71.4078 78.757 71.3898 78.7211 71.3898 78.7211 71.3898 78.7211 71.3898 78.7211 71.3898 78.6672 71.3898 78.6133 71.4078 78.5414 71.4617L74.8758 75.2352C74.8219 75.2891 74.8039 75.3609 74.8039 75.4148 74.8039 75.4688 74.8219 75.5227 74.8758 75.5945L85.0461 85.4594C85.1359 85.5492 85.2977 85.5492 85.3875 85.4594L89.0531 81.6859C89.143 81.5781 89.143 81.4164 89.0531 81.3266L89.0531 81.3266ZM29.0375 49.3422 29.0375 90.5625C29.0375 91.3531 28.3906 92 27.6 92L18.0406 92C17.25 92 16.6031 91.3531 16.6031 90.5625L16.6031 49.3422C16.6031 48.5516 17.25 47.9047 18.0406 47.9047L27.6 47.9047C28.4086 47.9047 29.0375 48.5516 29.0375 49.3422ZM26.1625 50.7797 19.4781 50.7797 19.4781 89.125 26.1625 89.125 26.1625 50.7797ZM41.418 54.4453C41.418 46.2156 48.1023 39.5312 56.332 39.5312 64.5617 39.5312 71.2461 46.2156 71.2461 54.4453 71.2461 62.675 64.5617 69.3594 56.332 69.3594 48.1023 69.3594 41.418 62.675 41.418 54.4453L41.418 54.4453ZM56.332 66.4844C59.3148 66.4844 62.0461 65.3883 64.1484 63.5914 63.4117 59.8898 60.1773 57.1945 56.332 57.1945 52.4867 57.1945 49.2523 59.9078 48.5156 63.6094 50.618 65.3883 53.3492 66.4844 56.332 66.4844ZM56.332 54.3016C58.1648 54.3016 59.6562 52.8102 59.6562 50.9773 59.6562 49.1445 58.1648 47.6531 56.332 47.6531 54.4992 47.6531 53.0078 49.1445 53.0078 50.9773 53.0078 52.8102 54.4992 54.3016 56.332 54.3016ZM44.293 54.4453C44.293 56.8891 45.0297 59.1531 46.2875 61.0578 47.3297 58.4703 49.3422 56.4039 51.8578 55.2719 50.7977 54.1578 50.1328 52.6484 50.1328 50.9953 50.1328 47.5812 52.918 44.7961 56.332 44.7961 59.7461 44.7961 62.5312 47.5812 62.5312 50.9953 62.5312 52.6484 61.8664 54.1578 60.8062 55.2719 63.3219 56.4039 65.3344 58.4703 66.3766 61.0578 67.6344 59.1531 68.3711 56.8891 68.3711 54.4453 68.3711 47.8148 62.9625 42.4062 56.332 42.4062 49.7016 42.4062 44.293 47.8148 44.293 54.4453L44.293 54.4453Z" fill="#F1E8F8" transform="matrix(1.01087 0 0 1 627 533)"/></g></svg>