<svg width="92" height="92" xmlns="http://www.w3.org/2000/svg" xmlns:xlink="http://www.w3.org/1999/xlink" xml:space="preserve" overflow="hidden"><defs><clipPath id="clip0"><rect x="148" y="396" width="92" height="92"/></clipPath></defs><g clip-path="url(#clip0)" transform="translate(-148 -396)"><path d="M85.6524 9.17704 55.0622 9.17704 55.0622 6.11803C55.0622 2.75311 52.3091 0 48.9442 0L6.11803 0C2.75311 0 0 2.75311 0 6.11803L0 39.7672C0 56.5918 16.0598 56.5918 21.4131 56.5918 22.3308 56.5918 22.9426 55.9799 22.9426 55.0622 22.9426 54.1445 22.3308 53.5327 21.4131 53.5327 18.0482 53.5327 15.2951 50.7796 15.2951 47.4147 15.2951 47.2618 15.2951 46.9559 15.2951 46.8029 15.7539 43.5909 18.507 41.2967 21.719 41.2967L42.8262 41.2967 42.8262 44.3557 29.0606 44.3557C28.1429 44.3557 27.5311 44.9675 27.5311 45.8852 27.5311 49.4031 28.9077 52.768 31.2019 55.2152 30.7431 56.7447 30.5901 58.1213 30.5901 59.6508 30.5901 65.7688 34.261 71.275 39.7672 73.7222 39.7672 74.6399 39.3083 76.4753 35.1787 76.4753 30.896 76.4753 27.5311 79.8403 27.5311 84.1229L27.5311 91.7704 30.5901 91.7704 30.5901 84.1229C30.5901 81.6757 32.4255 79.6873 34.8728 79.5344L42.3673 83.2052C42.9791 83.5111 43.7439 83.817 44.3557 83.9699L44.3557 91.7704 47.4147 91.7704 47.4147 83.9699C48.1795 83.817 48.7913 83.664 49.4031 83.3581L56.8977 79.6873C59.3449 79.8403 61.1803 81.8286 61.1803 84.2758L61.1803 91.9234 64.2393 91.9234 64.2393 84.2758C64.2393 79.9932 60.8744 76.6283 56.5918 76.6283 52.4621 76.6283 52.0032 74.7929 52.0032 73.8752 57.8154 71.428 61.3332 65.6159 61.1803 59.3449 61.1803 59.039 61.1803 58.4272 61.1803 58.2742 61.1803 56.1329 60.7214 53.9916 59.6508 52.1562L69.8985 52.1562C73.1104 52.1562 75.8635 54.4504 76.3224 57.6624 76.6283 61.0273 74.1811 64.0863 70.8162 64.3922 70.6632 64.3922 70.3573 64.3922 70.2044 64.3922 69.2867 64.3922 68.6749 65.004 68.6749 65.9217 68.6749 66.8395 69.2867 67.4513 70.2044 67.4513 75.5576 67.4513 91.6175 67.4513 91.6175 50.6267L91.6175 15.2951C91.7704 11.9302 89.0173 9.17704 85.6524 9.17704ZM21.719 38.2377C16.9775 38.2377 12.8479 41.7555 12.2361 46.497 12.0831 48.7913 12.6949 51.0855 14.0715 52.9209 6.57688 51.3914 3.05901 47.2618 3.05901 39.7672L3.05901 6.11803C3.05901 4.43557 4.43557 3.05901 6.11803 3.05901L48.9442 3.05901C50.6267 3.05901 52.0032 4.43557 52.0032 6.11803L52.0032 35.1787C52.0032 36.8611 50.6267 38.2377 48.9442 38.2377L21.719 38.2377ZM30.7431 47.4147 47.4147 47.4147C52.768 47.4147 57.2036 51.3914 57.9683 56.5918L41.2967 56.5918C35.9434 56.5918 31.5078 52.615 30.7431 47.4147ZM50.0149 71.1221C49.4031 71.275 48.9442 71.8868 48.9442 72.4986L48.9442 73.4163C48.7913 75.5576 50.0149 77.699 52.0032 78.6167L48.0265 80.605C46.65 81.2168 44.9675 81.2168 43.5909 80.605L39.7672 78.6167C41.7555 77.699 42.9791 75.5576 42.8262 73.4163L42.8262 72.6516C42.8262 72.0398 42.3673 71.428 41.7555 71.275 36.8611 69.4396 33.6492 64.8511 33.6492 59.6508 33.6492 58.886 33.6492 58.1213 33.8021 57.5095 35.9434 58.886 38.5436 59.6508 41.2967 59.6508L58.1213 59.6508C58.1213 64.8511 54.9093 69.4396 50.0149 71.1221ZM88.7114 50.4737C88.7114 57.9683 85.1935 62.098 77.699 63.6275 79.0755 61.7921 79.6873 59.4978 79.5344 57.2036 78.9226 52.4621 74.9458 48.9442 70.0514 48.9442L57.6624 48.9442C55.0622 46.0382 51.3914 44.3557 47.4147 44.3557L45.8852 44.3557 45.8852 41.2967 48.9442 41.2967C52.3091 41.2967 55.0622 38.5436 55.0622 35.1787L55.0622 12.2361 85.6524 12.2361C87.3348 12.2361 88.7114 13.6126 88.7114 15.2951L88.7114 50.4737 88.7114 50.4737Z" fill="#F1E8F8" transform="matrix(1.00418 0 0 1 148 396.038)"/><path d="M35.1787 16.8246 33.6492 16.8246C32.7314 16.8246 32.1196 16.2128 32.1196 15.2951L32.1196 10.7065C32.1196 8.10639 30.1313 6.11803 27.5311 6.11803 24.931 6.11803 22.9426 8.10639 22.9426 10.7065L22.9426 15.2951C22.9426 16.2128 22.3308 16.8246 21.4131 16.8246 21.4131 15.9069 20.8013 15.2951 19.8836 15.2951L13.7656 15.2951C12.8479 15.2951 12.2361 15.9069 12.2361 16.8246L12.2361 33.6492C12.2361 34.5669 12.8479 35.1787 13.7656 35.1787L19.8836 35.1787C20.8013 35.1787 21.4131 34.5669 21.4131 33.6492L35.1787 33.6492C37.7788 33.6492 39.7672 31.6608 39.7672 29.0606L39.7672 21.4131C39.7672 18.8129 37.7788 16.8246 35.1787 16.8246ZM18.3541 32.1196 15.2951 32.1196 15.2951 18.3541 18.3541 18.3541 18.3541 32.1196ZM36.7082 29.0606C36.7082 29.9783 36.0964 30.5901 35.1787 30.5901L21.4131 30.5901 21.4131 19.8836C24.0133 19.8836 26.0016 17.8952 26.0016 15.2951L26.0016 10.7065C26.0016 9.78884 26.6134 9.17704 27.5311 9.17704 28.4488 9.17704 29.0606 9.78884 29.0606 10.7065L29.0606 15.2951C29.0606 17.8952 31.049 19.8836 33.6492 19.8836L35.1787 19.8836C36.0964 19.8836 36.7082 20.4954 36.7082 21.4131L36.7082 29.0606Z" fill="#F1E8F8" transform="matrix(1.00418 0 0 1 148 396.038)"/><path d="M84.1229 15.2951 78.0049 15.2951C77.0872 15.2951 76.4753 15.9069 76.4753 16.8246L62.7098 16.8246C60.1096 16.8246 58.1213 18.8129 58.1213 21.4131L58.1213 29.0606C58.1213 31.6608 60.1096 33.6492 62.7098 33.6492L64.2393 33.6492C65.157 33.6492 65.7688 34.261 65.7688 35.1787L65.7688 39.7672C65.7688 42.3673 67.7572 44.3557 70.3573 44.3557 72.9575 44.3557 74.9458 42.3673 74.9458 39.7672L74.9458 35.1787C74.9458 34.261 75.5576 33.6492 76.4753 33.6492 76.4753 34.5669 77.0872 35.1787 78.0049 35.1787L84.1229 35.1787C85.0406 35.1787 85.6524 34.5669 85.6524 33.6492L85.6524 16.8246C85.6524 15.9069 85.0406 15.2951 84.1229 15.2951ZM76.4753 30.5901C73.8752 30.5901 71.8868 32.5785 71.8868 35.1787L71.8868 39.7672C71.8868 40.6849 71.275 41.2967 70.3573 41.2967 69.4396 41.2967 68.8278 40.6849 68.8278 39.7672L68.8278 35.1787C68.8278 32.5785 66.8395 30.5901 64.2393 30.5901L62.7098 30.5901C61.7921 30.5901 61.1803 29.9783 61.1803 29.0606L61.1803 21.4131C61.1803 20.4954 61.7921 19.8836 62.7098 19.8836L76.4753 19.8836 76.4753 30.5901ZM82.5934 32.1196 79.5344 32.1196 79.5344 18.3541 82.5934 18.3541 82.5934 32.1196Z" fill="#F1E8F8" transform="matrix(1.00418 0 0 1 148 396.038)"/><path d="M56.5918 39.7672 62.7098 39.7672 62.7098 42.8262 56.5918 42.8262Z" fill="#F1E8F8" transform="matrix(1.00418 0 0 1 148 396.038)"/><path d="M41.2967 7.64753 41.2967 6.11803 38.2377 6.11803 38.2377 7.64753 36.7082 7.64753 36.7082 10.7065 38.2377 10.7065 38.2377 12.2361 41.2967 12.2361 41.2967 10.7065 42.8262 10.7065 42.8262 7.64753Z" fill="#F1E8F8" transform="matrix(1.00418 0 0 1 148 396.038)"/></g></svg>