<svg id="Layer_1" data-name="Layer 1" xmlns="http://www.w3.org/2000/svg" viewBox="0 0 1080 1080"><defs><style>.cls-1{fill:#fff;}</style></defs><title>LOGO INFY - BLANCO</title><rect class="cls-1" x="100.24" y="609.19" width="22.71" height="146.32"/><path class="cls-1" d="M225.93,648.73a43.36,43.36,0,0,0-41.25,2.71,42.07,42.07,0,0,0-9.16,8.52l-.68-13.19H154.23V755.5H176V678.16a34.33,34.33,0,0,1,3.32-5.26,26.31,26.31,0,0,1,8.94-7.49,25.57,25.57,0,0,1,11.76-2.66,26.22,26.22,0,0,1,11.15,2.11,14,14,0,0,1,6.83,6.93q2.31,4.83,2.32,12.87V755.5h21.9V684.86q0-14.57-4.27-23.37A27,27,0,0,0,225.93,648.73Z"/><path class="cls-1" d="M315.44,599q-17.18,0-27.13,9.5t-9.95,27.28v10.95H261.58v16.28h16.78V755.5h21.91V663.05h22.61V646.77H300.27V635.82q0-9,4.77-13.87t13.22-4.82c1.74,0,3.46.07,5.17.2a39.6,39.6,0,0,1,4.57.6l.81-17.18a58.83,58.83,0,0,0-6.58-1.26A51.28,51.28,0,0,0,315.44,599Z"/><path class="cls-1" d="M379.93,724.1l-24.87-77.33H331.35l38.5,108L366,765.05q-2.92,8.85-7.89,12.41T343.91,781q-.71,0-2.31-.15l-2.51-.25v17.08c.93.27,2,.54,3.31.8s2.62.49,4,.66a35.12,35.12,0,0,0,3.92.25,31.11,31.11,0,0,0,13.37-2.66,29.37,29.37,0,0,0,9.44-6.94,44.77,44.77,0,0,0,6.28-8.94,76.32,76.32,0,0,0,4-8.7l43.52-125.41H403.6Z"/><path class="cls-1" d="M467.84,648.83Q472,637.63,480.1,631.6t20.3-6q16.27,0,23.46,8.34t9,23h22.71a62.34,62.34,0,0,0-8-25.82,46.12,46.12,0,0,0-18.35-17.59q-11.75-6.33-28.83-6.33-18.19,0-31.61,8.49a55.77,55.77,0,0,0-20.7,23.87q-7.29,15.38-7.28,36.28V689q0,20.81,7.18,36.23t20.25,23.86q13.06,8.45,30.75,8.44t29.84-6.38a46.46,46.46,0,0,0,18.69-17.53,60.27,60.27,0,0,0,8-25.23H532.85A49.79,49.79,0,0,1,527.93,725a24.44,24.44,0,0,1-10.5,10.51q-6.88,3.62-18.44,3.61-12.27,0-20.05-6.48t-11.51-17.78A83.06,83.06,0,0,1,463.72,689V675.61Q463.72,660,467.84,648.83Z"/><path class="cls-1" d="M625,644.76q-11.26,0-18.64,6.48a34.27,34.27,0,0,0-6.57,7.88l-.52-12.35h-21V755.5h21.81V680.27c.31-.76.63-1.53,1-2.24a21.57,21.57,0,0,1,8.7-9q5.67-3.21,14.11-3.21c1.68,0,3.28.05,4.83.15a34.7,34.7,0,0,1,4.72.65l.1-20.4a13.94,13.94,0,0,0-3.87-1A32.92,32.92,0,0,0,625,644.76Z"/><path class="cls-1" d="M720.47,651.65q-10.1-6.89-25.78-6.89a45.35,45.35,0,0,0-24.21,6.79,48.75,48.75,0,0,0-17.69,19.34q-6.63,12.57-6.63,29.85V705a56.59,56.59,0,0,0,6.28,26.93,47.19,47.19,0,0,0,17.74,18.74q11.45,6.89,27.13,6.88,16.08,0,26.12-6.38t15.28-14.22L726.45,726a37.57,37.57,0,0,1-11.81,10.25,33.06,33.06,0,0,1-16.13,3.72,28.37,28.37,0,0,1-16.38-4.67,30,30,0,0,1-10.45-12.62,41.06,41.06,0,0,1-3.49-15.07h72.23V698q0-15.46-4.92-27.48A41.23,41.23,0,0,0,720.47,651.65Zm-1.76,39.44h-50a49.81,49.81,0,0,1,2.59-11A29.16,29.16,0,0,1,680.43,667a22.34,22.34,0,0,1,14.16-4.62q8.74,0,13.87,3.92a22.61,22.61,0,0,1,7.49,10.1,43.57,43.57,0,0,1,2.76,13Z"/><path class="cls-1" d="M828.77,657.41a38.9,38.9,0,0,0-6.48-6.11q-9-6.54-22.46-6.54a37.9,37.9,0,0,0-22.71,6.94q-9.64,6.93-14.87,19.44T757,700.23v2.12q0,15.87,5.23,28.33a46,46,0,0,0,14.87,19.65,36.66,36.66,0,0,0,22.51,7.18q13.67,0,22.71-6.53a38.58,38.58,0,0,0,7.38-7.08l1.06,11.6h19.9V601.15H828.77Zm-9.34,78.3q-5.64,3.72-14.27,3.72-9.35,0-15.18-5A28.77,28.77,0,0,1,781.49,721a61.32,61.32,0,0,1-2.66-18.64v-2.12a61.82,61.82,0,0,1,2.71-18.79,29.38,29.38,0,0,1,8.54-13.61q5.83-5.08,15.28-5.08A27,27,0,0,1,816.77,665a23.66,23.66,0,0,1,8.18,6.18,31,31,0,0,1,3.82,5.93v47.66c-.15.3-.25.64-.4.93A26.64,26.64,0,0,1,819.43,735.71Z"/><path class="cls-1" d="M891.3,606.08q-6,0-9.29,3.46a11.91,11.91,0,0,0-3.27,8.49,11.72,11.72,0,0,0,3.27,8.44q3.25,3.42,9.29,3.42t9.35-3.42A11.64,11.64,0,0,0,904,618a11.82,11.82,0,0,0-3.32-8.49Q897.34,606.08,891.3,606.08Z"/><rect class="cls-1" x="880.25" y="646.77" width="21.91" height="108.73"/><path class="cls-1" d="M979.66,738.22c-.8.2-2,.42-3.67.65a33.64,33.64,0,0,1-4.87.35,17.89,17.89,0,0,1-5.93-.9A7.82,7.82,0,0,1,961,734.7c-1.08-1.81-1.61-4.48-1.61-8V663.05h19.8V646.77h-19.8V620.24H937.55v26.53H918.86v16.28h18.69v64.52q0,11.05,3.52,17.64a20.87,20.87,0,0,0,9.65,9.44,32.09,32.09,0,0,0,13.77,2.86,52.32,52.32,0,0,0,8.89-.65,40,40,0,0,0,6.38-1.56Z"/><path class="cls-1" d="M854.47,382.8l-93.25-91.28a35.5,35.5,0,0,0-46.92-2.37L704.52,297l-5.67-5.55a35.32,35.32,0,0,0-46.69-2.36L547.68,372.48l-105.28-84a35.75,35.75,0,0,0-45.68.77l-7.57,6.51-9-7.28a35.75,35.75,0,0,0-45.68.77L227.23,381.4a36,36,0,0,0-.14,54.45L333,527.9a35.5,35.5,0,0,0,45.46.94l9.32-7.45,7.49,6.51a35.49,35.49,0,0,0,45.45.94l105.78-84.46L651.28,528a35.51,35.51,0,0,0,46.9-2.25l5.76-5.61,9.53,7.8a35.61,35.61,0,0,0,47-2.26l93.87-91.34a36,36,0,0,0,.08-51.51Zm-446.93-81a19.16,19.16,0,0,1,24.48-.4l102.35,81.7L515.79,398l-113.5-91.62Zm95,106.75L388.26,499.78l-88-76.47a19.4,19.4,0,0,1,.07-29.32l89.16-76.65ZM368.12,515.86a18.91,18.91,0,0,1-24.21-.5L238,423.31a19.38,19.38,0,0,1,.07-29.32l107.22-92.18a19.15,19.15,0,0,1,24.43-.43l6.63,5.36L289.5,381.4a36,36,0,0,0-.14,54.45l85.7,74.47Zm62.27,0a18.91,18.91,0,0,1-24.21-.5l-5.18-4.5L520.92,415.1l0,0L662.52,302a18.68,18.68,0,0,1,24.71,1.25l4.21,4.12-117,93.41-.42.33-32.84,26.22,0,0Zm273-196.75,77.19,75.56a19.38,19.38,0,0,1,0,27.73L703,497.87,592.64,407.55ZM686.6,513.82a18.88,18.88,0,0,1-25,1.18L559.83,433.75l19.54-15.6L691,509.53ZM842.81,422.4l-93.87,91.35a19,19,0,0,1-25,1.25l-8-6.54,76.21-74.15a36,36,0,0,0,.07-51.51l-75.72-74.13,8.19-6.54a18.88,18.88,0,0,1,24.94,1.25l93.25,91.29a19.37,19.37,0,0,1-.05,27.73Z"/></svg>